<?xml version="1.0" encoding="UTF-8" standalone="no"?>
<!DOCTYPE svg PUBLIC "-//W3C//DTD SVG 20010904//EN" "http://www.w3.org/TR/2001/REC-SVG-20010904/DTD/svg10.dtd">
<svg version="1.0" xmlns="http://www.w3.org/2000/svg" width="512.000000pt" height="512.000000pt" viewBox="0 0 512.000000 512.000000" preserveAspectRatio="xMidYMid meet">
<metadata>
Created by potrace 1.16, written by Peter Selinger 2001-2019
</metadata>
<g transform="translate(0.000000,512.000000) scale(0.100000,-0.100000)" fill="#000000" stroke="none">
<path d="M2778 4593 c-131 -135 -186 -332 -174 -621 8 -184 6 -333 -3 -350 -5 -9 -21 30 -41 100 -51 174 -87 266 -138 348 -58 94 -179 217 -254 260 -66 37 -75 47 -20 25 151 -64 263 -173 357 -347 25 -46 45 -74 45 -63 0 39 -40 187 -66 242 -23 48 -29 54 -39 40 -10 -14 -13 -13 -27 11 -27 45 -124 135 -190 175 -142 86 -318 107 -488 57 l-85 -25 69 -7 c38 -5 95 -20 128 -34 55 -25 74 -43 46 -44 -17 -1 73 -48 147 -77 l60 -24 -45 6 -45 5 26 -22 c15 -13 44 -33 65 -46 22 -13 31 -21 21 -18 -65 20 -62 12 13 -33 47 -28 88 -51 92 -51 11 0 176 -99 183 -109 3 -6 -25 7 -62 27 -94 52 -184 91 -224 98 -32 5 -32 4 17 -24 47 -28 137 -122 116 -122 -5 0 -17 9 -27 20 -29 32 -178 128 -250 161 -119 54 -205 72 -345 72 -101 0 -136 -3 -180 -20 l-55 -20 70 -5 c90 -6 188 -38 322 -103 103 -50 106 -52 63 -49 l-45 4 54 -20 c101 -37 201 -92 276 -152 41 -32 75 -63 75 -68 0 -5 -28 6 -62 26 -223 127 -427 199 -635 224 -106 13 -211 2 -293 -30 -58 -23 -146 -78 -174 -109 -18 -19 -17 -19 31 -4 28 9 104 17 183 20 106 5 140 10 165 24 43 27 55 23 17 -5 l-32 -23 89 -6 c50 -3 99 -11 110 -17 17 -9 31 -6 69 10 26 12 67 23 92 26 l45 5 -60 -25 c-33 -14 -61 -26 -62 -26 -2 0 -3 -4 -3 -9 0 -5 22 -11 50 -15 27 -4 68 -13 91 -21 23 -8 76 -16 118 -17 42 -1 58 -3 36 -5 -22 -2 -47 -6 -55 -9 -16 -6 121 -54 155 -54 14 0 16 -3 7 -9 -9 -5 3 -14 38 -29 67 -28 229 -134 314 -206 l67 -57 -16 37 c-31 74 -133 202 -286 356 -86 87 -154 158 -152 158 2 0 26 -11 53 -25 93 -47 256 -225 326 -355 12 -22 23 -38 25 -35 3 2 34 -50 69 -115 36 -66 67 -120 70 -120 3 0 21 32 40 72 50 104 117 214 190 310 l63 83 -48 -45 c-38 -35 -44 -38 -27 -15 24 36 74 83 122 116 25 17 30 25 18 27 -14 3 -108 -18 -155 -35 -30 -10 68 59 132 94 33 18 53 33 45 33 -30 0 -172 -53 -196 -74 -27 -23 -83 -154 -125 -291 -36 -117 -39 -65 -5 85 53 231 169 438 311 554 58 48 66 45 18 -7 -73 -79 -204 -290 -189 -304 11 -11 152 48 221 92 55 35 65 45 45 45 -14 -1 -50 -9 -80 -20 -30 -10 -56 -17 -58 -15 -2 1 30 19 70 38 54 25 84 48 113 82 l39 48 -34 -6 c-86 -17 -90 -16 -24 6 117 39 112 36 91 52 -16 12 -11 16 54 46 l71 33 -33 11 -34 12 82 31 c62 24 99 32 150 33 l68 1 -50 23 c-27 13 -83 29 -124 36 -202 31 -395 -61 -560 -266 l-32 -40 7 49 c6 43 5 48 -10 43 -12 -5 -16 0 -16 20 0 21 -3 23 -14 14 -22 -18 -75 -194 -95 -316 -23 -131 -27 -93 -6 53 24 165 90 393 151 515 18 37 32 67 31 67 -2 0 -24 -21 -49 -47z m-151 -740 c-3 -10 -5 -4 -5 12 0 17 2 24 5 18 2 -7 2 -21 0 -30z"/>
<path d="M3307 4088 c-90 -9 -184 -53 -245 -116 -47 -48 -58 -68 -105 -189 l-25 -63 57 49 c31 26 90 75 132 107 41 32 100 78 129 102 54 44 134 89 180 102 22 6 20 7 -15 11 -22 2 -71 1 -108 -3z"/>
<path d="M3363 4016 c-44 -14 -117 -56 -110 -62 2 -2 24 3 48 12 54 20 221 30 269 16 33 -10 31 -10 -30 -11 -156 -3 -328 -74 -483 -199 l-38 -30 98 4 c96 5 247 24 240 30 -2 2 -28 8 -58 13 l-54 9 68 1 c48 1 80 7 110 23 l42 21 -39 11 c-32 9 -8 11 130 10 152 -1 176 -3 241 -25 62 -22 70 -23 62 -8 -19 36 -133 128 -197 160 -60 29 -78 33 -162 36 -60 2 -110 -2 -137 -11z m274 -52 c-3 -3 -12 -4 -19 -1 -8 3 -5 6 6 6 11 1 17 -2 13 -5z"/>
<path d="M3042 3705 c-35 -8 -84 -26 -110 -41 -64 -38 -199 -170 -258 -253 -27 -39 -54 -70 -59 -71 -6 0 -33 23 -60 51 -96 98 -347 236 -460 253 -36 6 -34 5 15 -13 75 -26 123 -47 187 -83 64 -36 64 -46 0 -18 -131 58 -384 90 -563 71 -149 -15 -264 -44 -361 -91 -95 -46 -209 -134 -272 -209 l-45 -53 85 42 c136 69 296 141 274 124 -11 -8 -29 -21 -40 -29 -45 -33 40 -3 117 41 43 24 80 44 83 44 2 0 -12 -16 -33 -36 l-37 -36 30 7 c17 3 64 22 105 40 41 18 89 37 105 40 24 5 20 0 -22 -24 -29 -17 -53 -33 -53 -35 0 -1 35 3 78 9 53 9 102 25 159 54 45 22 85 41 89 41 4 0 -18 -18 -49 -41 -32 -22 -57 -44 -57 -49 0 -6 30 1 67 15 83 32 101 28 36 -7 -26 -15 -59 -38 -71 -51 -22 -23 -17 -22 90 15 152 53 160 54 108 21 l-45 -28 110 -6 c61 -4 124 -11 140 -17 25 -9 16 -10 -55 -11 -108 -1 -257 -24 -339 -52 -35 -12 -93 -41 -129 -65 -35 -24 -67 -44 -69 -44 -2 0 9 17 26 37 17 21 27 39 22 41 -19 6 -142 -60 -220 -118 -157 -119 -284 -308 -332 -495 -25 -100 -27 -252 -5 -349 25 -107 35 -113 36 -21 1 124 44 272 117 400 l28 50 5 -70 5 -70 18 64 c10 35 25 96 33 135 15 74 54 200 59 194 2 -2 -5 -39 -16 -83 -25 -106 -24 -132 3 -80 21 41 168 275 173 275 1 0 1 -21 -1 -47 l-4 -48 14 45 13 45 4 -58 c2 -31 8 -58 13 -60 4 -1 18 25 31 58 12 33 28 73 36 90 l14 29 5 -59 5 -60 45 59 c45 59 45 59 50 31 l5 -29 31 39 c17 22 38 54 47 70 l16 30 -6 -32 c-6 -37 -2 -39 31 -18 36 24 212 65 306 72 94 6 182 -8 243 -38 20 -11 37 -20 37 -22 0 -1 -39 -2 -88 -2 -137 0 -272 -53 -418 -163 -171 -129 -287 -287 -344 -467 -39 -126 -28 -298 29 -425 l19 -42 4 108 c5 124 56 342 69 294 6 -23 8 -21 32 30 14 30 34 87 44 125 l18 70 7 -80 c14 -149 26 -152 25 -5 -2 104 2 143 14 170 15 34 15 33 11 -55 -2 -58 1 -101 9 -120 11 -28 13 -23 26 80 7 61 18 121 23 135 9 22 10 21 5 -10 -11 -87 -17 -180 -11 -180 3 0 20 28 37 63 51 100 127 203 202 273 38 35 67 64 63 64 -4 0 -43 -18 -89 -41 -80 -40 -81 -40 -47 -11 19 17 57 43 83 57 42 23 55 26 100 20 90 -13 157 -58 157 -107 0 -15 4 -28 9 -28 26 0 63 22 73 45 14 32 26 32 34 0 3 -14 11 -25 16 -25 6 0 7 -12 4 -27 -5 -22 -4 -25 4 -13 9 12 10 6 7 -25 -2 -22 2 -78 9 -125 8 -47 14 -109 14 -137 0 -29 4 -53 8 -53 4 0 22 15 40 33 39 41 40 62 7 191 -31 126 -83 233 -135 280 -41 37 -44 44 -9 26 33 -18 146 -186 251 -375 26 -46 37 -60 33 -40 -12 54 -93 208 -150 283 -50 67 -52 72 -24 55 44 -25 106 -98 140 -163 23 -46 28 -51 30 -30 1 24 2 23 9 -5 51 -188 89 -295 90 -255 0 13 -33 140 -55 210 -4 14 -4 22 -1 19 4 -4 24 -58 46 -120 21 -63 57 -162 80 -222 46 -121 96 -309 106 -401 7 -57 8 -59 17 -31 5 17 10 109 10 205 0 157 -2 185 -25 271 -14 53 -38 119 -52 147 -15 29 -25 52 -23 52 2 0 26 -33 53 -72 64 -96 67 -100 51 -53 -30 84 -98 205 -156 278 -113 140 -272 266 -381 302 -28 9 -50 19 -50 22 0 10 136 -9 200 -29 73 -23 131 -51 226 -108 35 -22 67 -40 70 -40 8 0 -5 38 -32 95 -21 42 -21 46 -4 25 11 -14 28 -43 38 -65 42 -93 43 -94 37 -55 l-5 35 25 -41 c22 -38 215 -205 215 -187 -1 30 -25 105 -50 157 l-30 61 54 -57 c29 -31 75 -91 101 -135 81 -132 96 -155 101 -150 7 7 -33 121 -62 179 -13 26 -22 48 -20 48 11 0 58 -92 80 -156 22 -66 82 -194 90 -194 8 0 -8 47 -40 118 -18 39 -31 72 -29 72 2 0 30 -44 63 -98 33 -54 70 -109 81 -122 l21 -25 -9 27 c-6 15 -22 50 -36 78 -15 29 -23 50 -18 47 17 -11 144 -274 158 -327 l14 -55 0 41 c2 112 -51 306 -115 422 -121 220 -360 412 -594 477 -14 3 2 -10 35 -30 74 -46 118 -82 107 -89 -5 -3 -28 8 -53 25 -122 81 -303 124 -492 117 -59 -3 -102 -1 -95 4 43 27 181 59 287 66 155 10 228 2 277 -32 45 -30 59 -33 50 -9 -6 16 -5 16 12 0 27 -25 156 -78 160 -66 2 5 -8 29 -21 54 -14 25 -24 45 -22 45 2 0 22 -27 45 -59 40 -61 73 -94 51 -53 -20 38 -11 37 20 -1 25 -31 86 -71 143 -96 5 -2 -2 17 -17 43 -32 58 -21 53 22 -11 20 -29 58 -65 91 -87 77 -49 207 -186 248 -261 l33 -60 -7 55 c-8 68 -37 157 -76 234 -130 257 -413 437 -683 435 -98 -1 -127 -14 -50 -23 172 -19 366 -96 460 -181 l50 -45 -66 43 c-245 162 -586 200 -897 102 -98 -31 -81 -13 70 76 65 38 118 72 118 74 0 6 -41 -10 -80 -30 -17 -9 -30 -13 -30 -10 0 9 152 78 260 118 53 20 120 38 150 42 54 6 54 5 -35 -26 -93 -32 -159 -67 -102 -53 15 3 41 1 58 -6 38 -16 32 -23 -8 -9 -27 9 -39 6 -92 -21 -62 -31 -79 -47 -38 -36 12 3 83 13 157 22 74 8 136 17 138 18 1 2 -12 13 -30 25 -18 11 -27 21 -20 21 7 0 24 -7 38 -16 13 -9 27 -14 30 -11 3 3 19 1 35 -3 21 -6 29 -5 29 4 0 10 13 12 50 8 27 -2 57 -2 66 2 15 6 14 9 -7 33 l-24 27 33 -23 c20 -14 57 -26 95 -31 85 -11 141 -27 212 -61 l60 -30 -67 64 c-73 70 -169 125 -262 152 -48 14 -84 16 -180 12 -134 -6 -225 -27 -360 -80 -82 -33 -86 -33 -66 -12 13 13 59 42 104 64 l81 41 -50 -1 c-27 0 -79 -7 -113 -14z m-925 -797 c-3 -8 -6 -5 -6 6 -1 11 2 17 5 13 3 -3 4 -12 1 -19z m1002 -280 c33 -126 38 -156 15 -93 -13 35 -54 196 -54 212 0 20 11 -15 39 -119z"/>
<path d="M2018 3653 c6 -2 18 -2 25 0 6 3 1 5 -13 5 -14 0 -19 -2 -12 -5z"/>
<path d="M3120 3330 l-45 -5 60 -8 c33 -4 78 -10 100 -13 39 -5 39 -5 15 9 -33 19 -75 24 -130 17z"/>
<path d="M2205 3201 c-187 -68 -333 -186 -401 -325 l-25 -51 27 35 c109 137 291 282 422 336 67 28 50 31 -23 5z"/>
<path d="M2873 3153 c49 -26 117 -71 153 -101 74 -60 181 -190 190 -230 4 -15 31 -83 61 -152 55 -124 83 -232 83 -315 0 -24 5 -47 10 -50 11 -7 16 47 11 143 -1 34 -1 62 2 62 3 0 11 -33 17 -72 18 -108 43 -182 105 -309 l56 -114 -6 85 c-4 47 -15 130 -26 184 -22 116 -19 141 5 34 21 -99 34 -191 37 -263 2 -33 13 -100 26 -150 12 -49 26 -112 29 -139 9 -63 17 -43 34 82 53 388 -109 773 -460 1088 -119 107 -214 176 -295 217 -108 53 -131 54 -32 0z"/>
<path d="M2434 3048 c-54 -57 -130 -231 -149 -343 -6 -36 -1 -31 53 56 61 99 143 212 164 226 7 4 2 -9 -10 -28 -38 -57 -98 -180 -125 -254 l-25 -70 64 -26 64 -27 10 42 c6 22 31 109 56 191 27 89 44 165 42 184 -3 38 -35 67 -83 77 -25 4 -35 0 -61 -28z"/>
<path d="M2905 2723 c19 -63 45 -217 44 -257 -1 -31 -1 -31 -14 9 -13 39 -13 37 -13 -55 0 -52 3 -106 7 -120 7 -22 11 -16 30 45 18 58 22 88 19 182 -2 65 -7 109 -12 105 -5 -3 -7 2 -3 11 3 10 3 17 -2 17 -4 0 -18 23 -31 51 -31 66 -43 72 -25 12z"/>
<path d="M2814 2604 c-39 -39 -41 -46 -47 -116 -13 -148 -95 -420 -163 -535 -14 -24 -22 -43 -18 -43 18 0 137 95 190 153 98 104 116 144 122 262 l4 100 -28 -42 c-26 -37 -98 -103 -112 -103 -4 0 15 21 40 48 26 26 52 60 57 75 12 30 13 175 2 217 l-6 25 -41 -41z m26 -411 c-7 -21 -17 -42 -22 -48 -7 -7 -9 -5 -5 5 3 8 11 32 18 53 7 20 14 35 17 33 2 -3 -1 -22 -8 -43z"/>
<path d="M2312 2538 c-36 -121 -37 -116 44 -142 l71 -23 17 83 c9 45 16 87 16 93 0 12 -91 61 -113 61 -9 0 -22 -28 -35 -72z"/>
<path d="M2275 2387 c-15 -43 -37 -200 -42 -297 l-6 -116 89 -11 c49 -6 90 -10 90 -9 1 0 4 88 7 194 l6 192 -31 16 c-60 31 -108 44 -113 31z"/>
<path d="M2230 1862 c0 -48 5 -126 10 -172 12 -102 50 -320 59 -337 4 -8 30 -5 93 11 48 12 90 25 93 28 3 3 -2 41 -12 84 l-18 79 -75 5 -75 5 60 18 c33 10 66 20 74 23 8 3 11 13 8 27 -7 24 -37 250 -37 271 0 15 -100 46 -148 46 l-32 0 0 -88z"/>
<path d="M2344 1329 l-42 -10 19 -87 c21 -94 89 -369 96 -389 4 -10 -19 -13 -95 -13 -127 0 -238 -15 -327 -45 -38 -12 -119 -28 -180 -34 -124 -13 -358 -58 -485 -95 l-85 -24 1230 0 1230 0 -160 33 c-295 62 -526 81 -620 51 l-40 -13 -46 51 -47 51 -86 4 c-66 2 -84 6 -77 15 12 14 -33 166 -52 178 -6 4 -40 10 -74 14 -35 3 -61 10 -58 14 3 4 29 11 60 15 30 3 57 10 60 15 2 4 0 21 -6 38 -11 31 -40 42 -116 42 -52 0 -38 17 20 24 72 9 78 15 67 56 -5 19 -14 54 -20 78 l-11 42 -57 -1 c-31 -1 -76 -5 -98 -10z"/>
</g>
</svg>